<svg id="Layer_1" data-name="Layer 1" xmlns="http://www.w3.org/2000/svg" viewBox="0 0 212.15 46.75"><defs><style>.cls-1{fill:#fff;}.cls-2{fill:#3ebbd7;}</style></defs><g id="Layer_16" data-name="Layer 16"><path class="cls-1" d="M32.55,22.92a16.72,16.72,0,0,1,8.81,8.82,16.68,16.68,0,0,1,0,12.91A17.25,17.25,0,0,1,37.81,50a16.58,16.58,0,0,1-5.26,3.58,16.58,16.58,0,0,1-12.92,0,16.69,16.69,0,0,1-8.92-8.92,16.24,16.24,0,0,1-1.29-6.44V11.58a3.3,3.3,0,0,1,3.3-3.3h0a3.3,3.3,0,0,1,3.3,3.3v6.74a3.3,3.3,0,0,0,3.3,3.3H26.1A15.86,15.86,0,0,1,32.55,22.92ZM26.07,48.29A9.76,9.76,0,0,0,30,47.51a10.06,10.06,0,0,0,6.12-9.3,9.76,9.76,0,0,0-.78-3.89A10.06,10.06,0,0,0,30,29a9.76,9.76,0,0,0-3.89-.78H19.29A3.3,3.3,0,0,0,16,31.5v6.71a10.06,10.06,0,0,0,.78,3.93,9.78,9.78,0,0,0,2.15,3.22,10.16,10.16,0,0,0,3.22,2.15A10,10,0,0,0,26.07,48.29Z" transform="translate(-9.42 -8.13)"/><path class="cls-1" d="M51.33,11.43v40a3.3,3.3,0,0,1-3.3,3.3h0a3.3,3.3,0,0,1-3.3-3.3v-40A3.31,3.31,0,0,1,48,8.12h0A3.32,3.32,0,0,1,51.33,11.43Z" transform="translate(-9.42 -8.13)"/><path class="cls-1" d="M53.77,38.21a16,16,0,0,1,1.3-6.48,16.61,16.61,0,0,1,8.85-8.82,16.34,16.34,0,0,1,6.45-1.3,16.06,16.06,0,0,1,6.48,1.3,17.1,17.1,0,0,1,5.3,3.56,16.45,16.45,0,0,1,3.59,5.26,16.82,16.82,0,0,1,0,12.92,16.86,16.86,0,0,1-8.89,8.92A16.57,16.57,0,0,1,58.62,50a17,17,0,0,1-3.55-5.33A16.11,16.11,0,0,1,53.77,38.21Zm6.52,0a10,10,0,0,0,.78,3.92,9.68,9.68,0,0,0,2.15,3.22,9.89,9.89,0,0,0,3.22,2.15,10.29,10.29,0,0,0,7.86,0,9.78,9.78,0,0,0,3.22-2.15,10,10,0,0,0,2.15-3.22,9.94,9.94,0,0,0,.78-3.92,9.72,9.72,0,0,0-.78-3.89,10.18,10.18,0,0,0-2.15-3.2A9.86,9.86,0,0,0,74.3,29a10.19,10.19,0,0,0-11.08,2.14,10.18,10.18,0,0,0-2.15,3.2A9.79,9.79,0,0,0,60.29,38.21Z" transform="translate(-9.42 -8.13)"/><path class="cls-1" d="M89.25,38.21a16.19,16.19,0,0,1,1.29-6.48,16.67,16.67,0,0,1,8.86-8.82,16.29,16.29,0,0,1,6.44-1.3,16.06,16.06,0,0,1,6.48,1.3,17.1,17.1,0,0,1,5.3,3.56,16.45,16.45,0,0,1,3.59,5.26,16.7,16.7,0,0,1,0,12.92,16.86,16.86,0,0,1-8.89,8.92A16.56,16.56,0,0,1,94.1,50a17.18,17.18,0,0,1-3.56-5.33A16.46,16.46,0,0,1,89.25,38.21Zm6.52,0a10,10,0,0,0,.78,3.92,9.68,9.68,0,0,0,2.15,3.22,10.22,10.22,0,0,0,11.08,2.15A9.78,9.78,0,0,0,113,45.35a10.16,10.16,0,0,0,2.15-3.22,9.94,9.94,0,0,0,.78-3.92,9.72,9.72,0,0,0-.78-3.89,10,10,0,0,0-2.15-3.2A9.86,9.86,0,0,0,109.78,29,10.19,10.19,0,0,0,98.7,31.12a10.18,10.18,0,0,0-2.15,3.2A9.79,9.79,0,0,0,95.77,38.21Z" transform="translate(-9.42 -8.13)"/><path class="cls-1" d="M167.92,21.47a16.06,16.06,0,0,1,6.48,1.3,17.1,17.1,0,0,1,5.3,3.56,16.45,16.45,0,0,1,3.59,5.26,16.23,16.23,0,0,1,1.3,6.48V51.43a3.31,3.31,0,0,1-3.3,3.31h0a3.31,3.31,0,0,1-3.3-3.31V38.07a9.72,9.72,0,0,0-.78-3.89A9.86,9.86,0,0,0,175.06,31a9.73,9.73,0,0,0-3.22-2.15,10,10,0,0,0-3.93-.78,9.76,9.76,0,0,0-3.89.78A9.93,9.93,0,0,0,160.84,31a9.68,9.68,0,0,0-2.14,3.19,9.56,9.56,0,0,0-.78,3.89V51.43a3.31,3.31,0,0,1-3.31,3.31h0a3.31,3.31,0,0,1-3.3-3.31V38.07a9.56,9.56,0,0,0-.78-3.89A10.16,10.16,0,0,0,148.39,31a9.83,9.83,0,0,0-3.22-2.15,10,10,0,0,0-3.93-.78,9.76,9.76,0,0,0-3.89.78A10.06,10.06,0,0,0,132,34.18a9.72,9.72,0,0,0-.78,3.89V51.43a3.31,3.31,0,0,1-3.3,3.31h0a3.31,3.31,0,0,1-3.3-3.31V38.07a16,16,0,0,1,1.3-6.48,16.7,16.7,0,0,1,8.85-8.82,16.34,16.34,0,0,1,6.45-1.3,16,16,0,0,1,7.58,1.81,17,17,0,0,1,3.56,2.49,3.27,3.27,0,0,0,4.37,0,17.19,17.19,0,0,1,3.59-2.5A16.46,16.46,0,0,1,167.92,21.47Z" transform="translate(-9.42 -8.13)"/><path class="cls-2" d="M193.75,26.48a1,1,0,0,0-1,1v.33a1,1,0,0,0,1,1h.45l1,0A3,3,0,0,1,196,29a1.28,1.28,0,0,1,.59.43,1.3,1.3,0,0,1,.23.81,1.57,1.57,0,0,1-.43,1.14,1.73,1.73,0,0,1-1.31.44,3.14,3.14,0,0,1-1.52-.59c-.61-.51-.93-.71-1.51-.58h0a1.34,1.34,0,0,0-.81,2.15,3.45,3.45,0,0,0,.77.65,5.54,5.54,0,0,0,3,.77,6.83,6.83,0,0,0,1.78-.23,4.34,4.34,0,0,0,1.47-.69,3.4,3.4,0,0,0,1-1.16,3.34,3.34,0,0,0,.37-1.62,3.22,3.22,0,0,0-.16-1,3,3,0,0,0-.47-.87,2.58,2.58,0,0,0-.75-.64,2.78,2.78,0,0,0-1-.33l1-.47a2.74,2.74,0,0,0,.75-.64,2.8,2.8,0,0,0,.47-.87,3.17,3.17,0,0,0,.16-1A3.4,3.4,0,0,0,199.2,23a3.49,3.49,0,0,0-1-1.16,4.34,4.34,0,0,0-1.47-.69,6.89,6.89,0,0,0-1.78-.23,5.48,5.48,0,0,0-3,.77,3.41,3.41,0,0,0-.77.65,1.34,1.34,0,0,0,.81,2.15h0c.58.13,1-.19,1.51-.58a3.24,3.24,0,0,1,1.52-.59,1.76,1.76,0,0,1,1.31.44,1.58,1.58,0,0,1,.43,1.14,1.3,1.3,0,0,1-.23.81,4.83,4.83,0,0,1-.65.54,2.31,2.31,0,0,1-.66.2Z" transform="translate(-9.42 -8.13)"/><path class="cls-2" d="M205.66,25.6a2.15,2.15,0,0,1,.44-.09,3.14,3.14,0,0,1,.45,0,4.05,4.05,0,0,1,1.65.33,3.86,3.86,0,0,1,1.27.9,4.18,4.18,0,0,1,.82,1.35,4.83,4.83,0,0,1,.29,1.66A4.3,4.3,0,0,1,209.2,33a4.56,4.56,0,0,1-1.52.91,5.54,5.54,0,0,1-1.88.32,5.46,5.46,0,0,1-1.88-.32,4.52,4.52,0,0,1-1.51-.91,4.26,4.26,0,0,1-1-1.41,4.37,4.37,0,0,1-.37-1.83,5.66,5.66,0,0,1,.13-1.28,6,6,0,0,1,.34-1.09,6.89,6.89,0,0,1,.49-1l.59-1,2.4-3.81a1.38,1.38,0,0,1,1.16-.65h0a1.4,1.4,0,0,1,1.16,2.17Zm2.19,4a2.1,2.1,0,1,0-2.06,2,2,2,0,0,0,1.49-.58A2,2,0,0,0,207.85,29.61Z" transform="translate(-9.42 -8.13)"/><path class="cls-2" d="M212,27.58a13.25,13.25,0,0,1,.21-2.32,7,7,0,0,1,.74-2.14,4.53,4.53,0,0,1,1.47-1.58,4.3,4.3,0,0,1,2.36-.61,4.18,4.18,0,0,1,2.36.61,4.43,4.43,0,0,1,1.46,1.58,6.7,6.7,0,0,1,.74,2.14,12.92,12.92,0,0,1,0,4.64,7,7,0,0,1-.74,2.14,4.48,4.48,0,0,1-1.46,1.57,4.26,4.26,0,0,1-2.36.61,4.18,4.18,0,0,1-2.36-.61A4.42,4.42,0,0,1,213,32a6.7,6.7,0,0,1-.74-2.14A13.25,13.25,0,0,1,212,27.58Zm2.72,0c0,.34,0,.74,0,1.21a5.62,5.62,0,0,0,.24,1.36,2.92,2.92,0,0,0,.61,1.11,1.44,1.44,0,0,0,1.15.45,1.48,1.48,0,0,0,1.14-.45,2.86,2.86,0,0,0,.62-1.11,6,6,0,0,0,.24-1.36c0-.47,0-.88,0-1.21s0-.74,0-1.21a6.15,6.15,0,0,0-.24-1.36,2.81,2.81,0,0,0-.62-1.11,1.68,1.68,0,0,0-2.29,0A3,3,0,0,0,215,25a6,6,0,0,0-.24,1.36C214.76,26.84,214.75,27.24,214.75,27.58Z" transform="translate(-9.42 -8.13)"/></g></svg>