<?xml version="1.0" encoding="utf-8"?>
<!-- Generator: Adobe Adobe Illustrator 24.2.0, SVG Export Plug-In . SVG Version: 6.00 Build 0)  -->
<svg version="1.1" xmlns="http://www.w3.org/2000/svg" xmlns:xlink="http://www.w3.org/1999/xlink" x="0px" y="0px" width="288px"
	 height="288px" viewBox="0 0 288 288" style="enable-background:new 0 0 288 288;" xml:space="preserve">
<style type="text/css">
	.st0{display:none;}
	.st1{display:inline;}
	.st2{display:inline;fill:#36A4C3;}
	.st3{display:inline;fill:url(#SVGID_1_);}
	.st4{display:inline;fill:#FFFFFF;}
	.st5{display:inline;fill:url(#SVGID_2_);}
	.st6{display:inline;fill:url(#SVGID_3_);}
	.st7{display:inline;fill:url(#SVGID_4_);}
	.st8{display:inline;fill:#F6FAF7;}
	.st9{display:inline;fill:url(#SVGID_5_);}
	.st10{display:inline;fill:url(#XMLID_6_);}
	.st11{fill:#33AFCB;}
	.st12{display:inline;fill:#3D0C8F;}
	.st13{display:inline;fill:#E52C8D;}
	.st14{display:inline;fill:#EF2D95;stroke:#FFFFFF;stroke-miterlimit:10;}
	.st15{display:inline;fill:url(#SVGID_6_);}
	.st16{fill:url(#SVGID_7_);}
	.st17{fill:url(#SVGID_8_);}
	.st18{display:inline;fill:#F13411;}
	.st19{clip-path:url(#SVGID_10_);fill:#E5308B;}
	.st20{clip-path:url(#SVGID_12_);fill:#E5308B;}
	.st21{fill-rule:evenodd;clip-rule:evenodd;fill:#E5308B;}
	.st22{opacity:0.31;fill-rule:evenodd;clip-rule:evenodd;fill:#E5308B;}
	.st23{clip-path:url(#SVGID_14_);fill:#E5308B;}
	.st24{clip-path:url(#SVGID_16_);fill:#E5308B;}
	.st25{clip-path:url(#SVGID_18_);fill:#E5308B;}
	.st26{clip-path:url(#SVGID_20_);fill:#E5308B;}
	.st27{clip-path:url(#SVGID_22_);fill:#E5308B;}
	.st28{clip-path:url(#SVGID_24_);fill:#E5308B;}
	.st29{clip-path:url(#SVGID_26_);fill:#E5308B;}
	.st30{clip-path:url(#SVGID_28_);fill:#E5308B;}
	.st31{clip-path:url(#SVGID_30_);fill:#E5308B;}
	.st32{clip-path:url(#SVGID_32_);fill:#E5308B;}
	.st33{clip-path:url(#SVGID_34_);fill:#E5308B;}
	.st34{clip-path:url(#SVGID_36_);fill:#E5308B;}
	.st35{clip-path:url(#SVGID_38_);fill:#E5308B;}
	.st36{clip-path:url(#SVGID_40_);fill:#E5308B;}
	.st37{display:inline;fill:url(#SVGID_41_);}
	.st38{fill:#E5308B;}
	.st39{fill:#E6338A;}
	.st40{display:inline;fill:#E5308B;}
	.st41{display:inline;fill:#E5328A;}
	.st42{fill:#4D2D9C;}
	.st43{fill:url(#SVGID_42_);}
	.st44{fill:#3D0C8F;}
	.st45{fill:#EF2D95;}
	.st46{display:inline;fill:url(#SVGID_43_);}
	.st47{display:inline;fill:url(#SVGID_44_);}
	.st48{display:inline;fill:url(#SVGID_45_);}
	.st49{fill:#31B2BA;}
	.st50{fill:#72389C;}
	.st51{fill:#F1B026;}
	.st52{fill:#F56864;}
	.st53{fill:#F36764;}
	.st54{fill:#EFB02A;}
	.st55{fill:#713799;}
	.st56{fill:#39B4CD;}
	.st57{fill:#3EBBD7;}
	.st58{display:inline;fill:#33B1B9;}
	.st59{display:inline;fill:#4544A4;}
	.st60{display:inline;fill:#F36764;}
	.st61{display:inline;fill:#EFB02A;}
	.st62{display:inline;fill:#713799;}
	.st63{display:inline;fill:url(#SVGID_52_);}
	.st64{display:inline;fill:url(#SVGID_53_);}
	.st65{display:inline;fill:#EEB02E;}
	.st66{display:inline;fill:#F26764;}
</style>
<g id="Layer_1" class="st0">
	<g id="Layer_2" class="st1">
	</g>
</g>
<g id="Layer_15" class="st0">
</g>
<g id="Layer_4" class="st0">
	<g id="Layer_5" class="st1">
	</g>
</g>
<g id="Layer_18" class="st0">
</g>
<g id="Layer_11" class="st0">
</g>
<g id="Logo-1" class="st0">
</g>
<g id="Layer_10" class="st0">
</g>
<g id="Layer_19" class="st0">
</g>
<g id="Logo-3" class="st0">
</g>
<g id="Layer_16">
	<g>
		<path d="M61.07,135.41c2,0.86,3.75,2.05,5.26,3.56c1.51,1.51,2.69,3.26,3.55,5.26c0.86,2,1.3,4.16,1.3,6.48
			c0,2.27-0.43,4.42-1.3,6.44c-0.87,2.03-2.05,3.8-3.55,5.33c-1.51,1.53-3.26,2.73-5.26,3.59c-2,0.87-4.16,1.3-6.48,1.3
			c-2.27,0-4.42-0.43-6.44-1.3c-2.03-0.86-3.8-2.06-5.33-3.59c-1.53-1.53-2.73-3.31-3.59-5.33c-0.86-2.02-1.29-4.17-1.29-6.44
			v-26.63c0-1.82,1.48-3.3,3.3-3.3h0c1.82,0,3.3,1.48,3.3,3.3v6.74c0,1.82,1.48,3.3,3.3,3.3h6.78
			C56.91,134.11,59.07,134.54,61.07,135.41z M54.59,160.78c1.38,0,2.68-0.26,3.89-0.78c1.21-0.52,2.27-1.23,3.19-2.15
			s1.63-1.99,2.15-3.22c0.52-1.23,0.78-2.54,0.78-3.93c0-1.38-0.26-2.68-0.78-3.89c-0.52-1.21-1.23-2.27-2.15-3.19
			c-0.91-0.91-1.97-1.63-3.19-2.15c-1.21-0.52-2.51-0.78-3.89-0.78h-6.78c-1.82,0-3.3,1.48-3.3,3.3v6.71c0,1.38,0.26,2.69,0.78,3.93
			c0.52,1.24,1.23,2.31,2.15,3.22s1.99,1.63,3.22,2.15S53.21,160.78,54.59,160.78z"/>
		<path d="M79.85,123.92v40c0,1.82-1.48,3.3-3.3,3.3l0,0c-1.82,0-3.3-1.48-3.3-3.3v-40c0-1.82,1.48-3.3,3.3-3.3l0,0
			C78.37,120.63,79.85,122.1,79.85,123.92z"/>
		<path d="M82.29,150.7c0-2.32,0.43-4.48,1.3-6.48c0.86-2,2.05-3.75,3.55-5.26c1.51-1.51,3.27-2.69,5.3-3.56
			c2.03-0.86,4.17-1.3,6.45-1.3c2.32,0,4.48,0.43,6.48,1.3c2,0.86,3.77,2.05,5.3,3.56c1.53,1.51,2.73,3.26,3.59,5.26
			c0.86,2,1.29,4.16,1.29,6.48c0,2.27-0.43,4.42-1.29,6.44c-0.87,2.03-2.06,3.8-3.59,5.33c-1.53,1.53-3.3,2.73-5.3,3.59
			c-2,0.87-4.16,1.3-6.48,1.3c-2.27,0-4.42-0.43-6.45-1.3c-2.03-0.86-3.79-2.06-5.3-3.59c-1.51-1.53-2.69-3.31-3.55-5.33
			C82.72,155.12,82.29,152.98,82.29,150.7z M88.81,150.7c0,1.38,0.26,2.69,0.78,3.93c0.52,1.24,1.23,2.31,2.15,3.22
			c0.91,0.91,1.99,1.63,3.22,2.15c1.23,0.52,2.54,0.78,3.93,0.78c1.38,0,2.69-0.26,3.93-0.78s2.31-1.23,3.22-2.15
			c0.91-0.91,1.63-1.99,2.15-3.22c0.52-1.23,0.78-2.54,0.78-3.93c0-1.38-0.26-2.68-0.78-3.89c-0.52-1.21-1.24-2.27-2.15-3.19
			c-0.91-0.91-1.99-1.63-3.22-2.15s-2.54-0.78-3.93-0.78c-1.38,0-2.69,0.26-3.93,0.78c-1.24,0.52-2.31,1.23-3.22,2.15
			c-0.91,0.91-1.63,1.98-2.15,3.19C89.07,148.03,88.81,149.32,88.81,150.7z"/>
		<path d="M117.77,150.7c0-2.32,0.43-4.48,1.29-6.48c0.87-2,2.05-3.75,3.56-5.26c1.51-1.51,3.27-2.69,5.3-3.56
			c2.02-0.86,4.17-1.3,6.44-1.3c2.32,0,4.48,0.43,6.48,1.3c2,0.86,3.77,2.05,5.3,3.56c1.53,1.51,2.73,3.26,3.59,5.26
			c0.86,2,1.3,4.16,1.3,6.48c0,2.27-0.43,4.42-1.3,6.44c-0.87,2.03-2.06,3.8-3.59,5.33c-1.53,1.53-3.3,2.73-5.3,3.59
			c-2,0.87-4.16,1.3-6.48,1.3c-2.27,0-4.42-0.43-6.44-1.3c-2.03-0.86-3.79-2.06-5.3-3.59c-1.51-1.53-2.69-3.31-3.56-5.33
			C118.21,155.12,117.77,152.98,117.77,150.7z M124.29,150.7c0,1.38,0.26,2.69,0.78,3.93c0.52,1.24,1.23,2.31,2.15,3.22
			s1.99,1.63,3.22,2.15s2.54,0.78,3.93,0.78s2.69-0.26,3.93-0.78s2.31-1.23,3.22-2.15s1.63-1.99,2.15-3.22
			c0.52-1.23,0.78-2.54,0.78-3.93c0-1.38-0.26-2.68-0.78-3.89c-0.52-1.21-1.23-2.27-2.15-3.19c-0.91-0.91-1.99-1.63-3.22-2.15
			s-2.54-0.78-3.93-0.78s-2.69,0.26-3.93,0.78s-2.31,1.23-3.22,2.15c-0.91,0.91-1.63,1.98-2.15,3.19
			C124.55,148.03,124.29,149.32,124.29,150.7z"/>
		<path d="M196.44,133.96c2.32,0,4.48,0.43,6.48,1.3c2,0.86,3.77,2.05,5.3,3.56c1.53,1.51,2.73,3.26,3.59,5.26
			c0.86,2,1.3,4.16,1.3,6.48v13.37c0,1.82-1.48,3.3-3.3,3.3l0,0c-1.82,0-3.3-1.48-3.3-3.3v-13.37c0-1.38-0.26-2.68-0.78-3.89
			c-0.52-1.21-1.23-2.27-2.15-3.19c-0.91-0.91-1.99-1.63-3.22-2.15c-1.24-0.52-2.54-0.78-3.93-0.78c-1.38,0-2.68,0.26-3.89,0.78
			c-1.21,0.52-2.27,1.23-3.18,2.15c-0.92,0.91-1.63,1.98-2.15,3.19c-0.52,1.21-0.78,2.51-0.78,3.89v13.37c0,1.82-1.48,3.3-3.3,3.3
			l0,0c-1.82,0-3.3-1.48-3.3-3.3v-13.37c0-1.38-0.26-2.68-0.78-3.89c-0.52-1.21-1.24-2.27-2.15-3.19c-0.91-0.91-1.99-1.63-3.22-2.15
			s-2.54-0.78-3.93-0.78c-1.38,0-2.68,0.26-3.89,0.78c-1.21,0.52-2.27,1.23-3.19,2.15c-0.91,0.91-1.63,1.98-2.15,3.19
			c-0.52,1.21-0.78,2.51-0.78,3.89v13.37c0,1.82-1.48,3.3-3.3,3.3h0c-1.82,0-3.3-1.48-3.3-3.3v-13.37c0-2.32,0.43-4.48,1.3-6.48
			c0.86-2,2.05-3.75,3.56-5.26c1.51-1.51,3.27-2.69,5.29-3.56c2.03-0.86,4.17-1.3,6.45-1.3c2.77,0,5.3,0.61,7.59,1.81
			c1.31,0.69,2.49,1.52,3.56,2.49c1.22,1.12,3.15,1.12,4.37,0.01c1.07-0.97,2.27-1.81,3.59-2.5
			C191.21,134.57,193.72,133.96,196.44,133.96z"/>
		<g>
			<path class="st57" d="M222.18,141.28 M222.27,138.97c-0.57,0-1.02,0.44-1.02,0.98v0.34c0,0.54,0.46,0.98,1.02,0.98h0.45l1,0.04
				c0.3,0.02,0.57,0.07,0.82,0.16c0.24,0.09,0.44,0.23,0.59,0.43s0.23,0.46,0.23,0.81c0,0.46-0.14,0.84-0.43,1.14
				s-0.72,0.44-1.31,0.44c-0.65,0-1.42-0.51-1.52-0.59c-0.61-0.51-0.93-0.71-1.51-0.58l-0.05,0.01c-1,0.22-1.47,1.4-0.81,2.15
				c0.22,0.25,0.48,0.47,0.77,0.65c0.83,0.51,1.81,0.77,2.96,0.77c0.63,0,1.22-0.08,1.79-0.23c0.56-0.15,1.05-0.38,1.47-0.69
				c0.42-0.31,0.75-0.69,1-1.16c0.25-0.46,0.37-1,0.37-1.62c0-0.36-0.05-0.7-0.16-1.03c-0.11-0.32-0.27-0.61-0.47-0.87
				s-0.46-0.47-0.75-0.64c-0.3-0.17-0.64-0.28-1.02-0.33l1.02-0.47c0.29-0.17,0.55-0.39,0.75-0.64s0.36-0.54,0.47-0.87
				c0.11-0.32,0.16-0.67,0.16-1.03c0-0.61-0.12-1.15-0.37-1.62c-0.25-0.46-0.58-0.85-1-1.16c-0.42-0.31-0.91-0.54-1.47-0.69
				c-0.56-0.15-1.16-0.23-1.79-0.23c-1.15,0-2.13,0.25-2.96,0.77c-0.29,0.18-0.55,0.39-0.77,0.65c-0.66,0.75-0.19,1.92,0.81,2.15
				l0.05,0.01c0.58,0.13,0.99-0.19,1.51-0.58c0.09-0.07,0.88-0.59,1.52-0.59c0.59,0,1.03,0.15,1.31,0.44s0.43,0.67,0.43,1.14
				c0,0.35-0.09,0.64-0.23,0.81c-0.13,0.17-0.65,0.54-0.65,0.54c-0.2,0.1-0.42,0.16-0.66,0.2L222.27,138.97z"/>
			<path class="st57" d="M234.18,138.09c0.14-0.04,0.29-0.07,0.44-0.09c0.14-0.02,0.29-0.04,0.45-0.04c0.6,0,1.15,0.11,1.65,0.33
				c0.49,0.22,0.92,0.52,1.27,0.9c0.35,0.38,0.62,0.83,0.82,1.35c0.19,0.52,0.29,1.08,0.29,1.66c0,0.67-0.12,1.29-0.37,1.83
				c-0.25,0.55-0.59,1.02-1.01,1.41c-0.43,0.39-0.94,0.7-1.52,0.91c-0.59,0.21-1.21,0.32-1.88,0.32c-0.68,0-1.3-0.11-1.88-0.32
				c-0.58-0.21-1.08-0.52-1.51-0.91c-0.43-0.39-0.77-0.86-1.02-1.41c-0.25-0.55-0.37-1.16-0.37-1.83c0-0.47,0.04-0.89,0.13-1.28
				c0.08-0.39,0.2-0.75,0.34-1.09c0.14-0.34,0.3-0.67,0.49-0.98s0.38-0.63,0.59-0.97l2.4-3.81c0.25-0.4,0.69-0.65,1.16-0.65l0,0
				c1.1,0,1.76,1.24,1.16,2.17L234.18,138.09z M236.37,142.1c0-0.59-0.19-1.08-0.57-1.46c-0.38-0.39-0.88-0.58-1.49-0.58
				c-0.62,0-1.11,0.19-1.49,0.58c-0.38,0.39-0.57,0.87-0.57,1.46c0,0.59,0.19,1.08,0.57,1.46c0.38,0.39,0.88,0.58,1.49,0.58
				c0.62,0,1.12-0.19,1.49-0.58C236.18,143.18,236.37,142.69,236.37,142.1z"/>
			<path class="st57" d="M240.55,140.07c0-0.76,0.07-1.53,0.21-2.32c0.14-0.79,0.39-1.5,0.74-2.14c0.36-0.64,0.84-1.16,1.46-1.57
				c0.62-0.4,1.4-0.61,2.36-0.61c0.96,0,1.74,0.2,2.36,0.61c0.62,0.4,1.1,0.93,1.46,1.57c0.36,0.64,0.6,1.35,0.74,2.14
				c0.14,0.79,0.21,1.56,0.21,2.32c0,0.76-0.07,1.53-0.21,2.32s-0.39,1.5-0.74,2.14c-0.36,0.64-0.84,1.16-1.46,1.57
				c-0.62,0.4-1.4,0.61-2.36,0.61c-0.95,0-1.74-0.2-2.36-0.61c-0.62-0.4-1.1-0.93-1.46-1.57c-0.36-0.64-0.6-1.35-0.74-2.14
				S240.55,140.83,240.55,140.07z M243.27,140.07c0,0.34,0.02,0.74,0.04,1.21s0.11,0.92,0.24,1.36c0.13,0.44,0.34,0.8,0.61,1.11
				s0.66,0.45,1.15,0.45c0.48,0,0.86-0.15,1.14-0.45c0.28-0.3,0.48-0.67,0.62-1.11c0.13-0.43,0.21-0.89,0.24-1.36
				c0.03-0.47,0.04-0.88,0.04-1.21c0-0.34-0.01-0.74-0.04-1.21c-0.03-0.47-0.11-0.92-0.24-1.36c-0.13-0.44-0.34-0.8-0.62-1.11
				c-0.28-0.3-0.66-0.45-1.14-0.45c-0.49,0-0.88,0.15-1.15,0.45c-0.27,0.3-0.47,0.67-0.61,1.11c-0.13,0.43-0.21,0.89-0.24,1.36
				S243.27,139.73,243.27,140.07z"/>
		</g>
	</g>
</g>
<g id="Layer_13" class="st0">
</g>
<g id="Layer_12" class="st0">
</g>
</svg>
